<?xml version="1.0" standalone="no"?>
<!DOCTYPE svg PUBLIC "-//W3C//DTD SVG 20010904//EN"
 "http://www.w3.org/TR/2001/REC-SVG-20010904/DTD/svg10.dtd">
<svg version="1.0" xmlns="http://www.w3.org/2000/svg"
 width="526.000000pt" height="422.000000pt" viewBox="0 0 526.000000 422.000000"
 preserveAspectRatio="xMidYMid meet">

<g transform="translate(0.000000,422.000000) scale(0.100000,-0.100000)"
fill="#000000" stroke="none">
<path d="M2760 2753 c-74 -24 -141 -46 -147 -48 -9 -3 -13 -29 -13 -85 l0 -80
-50 0 -50 0 0 -120 0 -120 49 0 49 0 4 -252 c3 -252 3 -253 30 -308 32 -65 87
-106 156 -116 58 -9 238 1 275 15 l27 11 0 114 0 114 -37 -14 c-21 -7 -53 -13
-71 -14 -52 0 -59 30 -54 258 l4 192 79 0 79 0 0 120 0 120 -80 0 -80 0 0 130
c0 118 -2 130 -17 129 -10 -1 -79 -21 -153 -46z"/>
<path d="M932 2552 c-50 -18 -87 -46 -137 -101 l-21 -24 -21 54 -20 54 -189 0
-189 0 0 -115 0 -115 38 -3 37 -3 0 -210 0 -209 -40 0 -40 0 0 -115 0 -115
275 0 275 0 0 115 0 115 -66 0 -67 0 5 163 c5 172 15 214 59 237 24 13 65 16
97 6 48 -16 52 -43 52 -351 l0 -285 225 0 225 0 0 115 0 115 -39 0 -39 0 -5
218 c-5 241 -17 301 -77 374 -68 82 -227 119 -338 80z"/>
<path d="M1873 2550 c-179 -32 -319 -146 -373 -304 -28 -83 -28 -229 1 -314
43 -127 143 -226 278 -275 79 -29 252 -35 341 -12 228 59 363 265 331 504 -26
198 -156 346 -341 389 -69 16 -179 22 -237 12z m146 -246 c44 -31 65 -98 65
-214 1 -114 -10 -156 -52 -202 -19 -21 -35 -28 -62 -28 -117 0 -170 241 -89
402 11 20 27 42 36 47 27 16 76 13 102 -5z"/>
<path d="M3455 2541 c-162 -46 -271 -155 -311 -311 -20 -80 -15 -241 10 -315
24 -70 84 -153 142 -198 91 -70 177 -97 317 -97 162 0 313 46 403 124 l36 31
-72 83 c-40 45 -74 82 -77 82 -3 0 -18 -10 -35 -21 -43 -31 -141 -59 -206 -59
-73 1 -132 27 -160 72 -44 71 -54 68 253 68 253 0 276 1 283 18 4 9 7 67 7
127 0 142 -18 195 -90 273 -87 94 -211 143 -360 141 -44 0 -107 -8 -140 -18z
m257 -260 c19 -22 28 -42 28 -66 l0 -35 -130 0 c-93 0 -130 3 -130 12 0 6 9
31 20 54 27 54 68 76 134 71 40 -4 55 -10 78 -36z"/>
<path d="M4332 2545 c-91 -26 -154 -71 -193 -138 -34 -59 -33 -162 1 -230 46
-92 120 -137 311 -191 138 -39 170 -60 151 -100 -31 -68 -222 -27 -251 54
l-10 31 -118 -3 -118 -3 -3 -157 -3 -158 115 0 115 0 7 51 7 50 36 -34 c70
-67 112 -82 236 -82 104 0 114 2 177 33 99 49 150 125 151 227 1 44 -6 74 -22
108 -39 80 -100 119 -294 186 -179 61 -198 76 -175 126 14 31 38 39 93 30 54
-8 117 -52 135 -94 l12 -31 114 0 114 0 0 160 0 161 -107 -3 -108 -3 -10 -53
-10 -54 -22 30 c-56 75 -220 118 -331 87z"/>
</g>
</svg>
